<?xml version="1.0" standalone="no"?>
<!DOCTYPE svg PUBLIC "-//W3C//DTD SVG 20010904//EN"
 "http://www.w3.org/TR/2001/REC-SVG-20010904/DTD/svg10.dtd">
<svg version="1.0" xmlns="http://www.w3.org/2000/svg"
 width="1024.000000pt" height="1024.000000pt" viewBox="0 0 1024.000000 1024.000000"
 preserveAspectRatio="xMidYMid meet">

<g transform="translate(0.000000,1024.000000) scale(0.100000,-0.100000)"
fill="#000000" stroke="none">
<path d="M6930 7493 c-331 -189 -570 -323 -850 -478 -151 -84 -372 -206 -490
-272 -118 -66 -259 -143 -312 -173 l-98 -53 0 -269 c0 -181 3 -268 11 -268 5
0 56 24 112 54 56 29 199 104 317 166 118 62 297 157 396 211 100 55 185 99
188 99 3 0 6 -309 6 -686 l0 -686 38 23 c20 12 145 82 277 154 132 72 300 164
373 205 l132 74 0 263 c0 145 -4 263 -8 263 -4 0 -60 -27 -123 -61 -62 -33
-194 -101 -292 -150 l-177 -89 2 417 3 417 95 51 c51 27 207 109 345 180 l250
130 3 293 c1 160 -1 292 -5 292 -5 -1 -91 -48 -193 -107z"/>
<path d="M3222 7303 l3 -288 40 -20 c22 -11 86 -44 142 -74 56 -29 104 -51
107 -49 2 2 13 -5 24 -15 12 -11 26 -16 33 -11 7 4 10 3 5 -4 -3 -6 3 -13 14
-17 11 -4 50 -24 87 -46 37 -21 76 -39 86 -39 10 0 20 -7 24 -16 3 -8 12 -13
20 -10 8 3 11 2 8 -3 -7 -13 28 -23 51 -15 15 4 16 4 5 -4 -11 -8 -8 -13 16
-26 35 -17 43 -13 43 22 0 21 2 22 15 12 19 -15 20 -40 2 -40 -11 0 -15 -77
-21 -407 -4 -224 -9 -409 -11 -411 -7 -7 -295 122 -497 224 -38 18 -68 29 -68
23 0 -6 -4 -8 -9 -5 -5 4 -9 -96 -8 -244 l2 -250 48 -25 c27 -14 55 -25 62
-25 8 0 19 -8 25 -17 8 -13 13 -14 16 -5 8 17 27 15 21 -2 -4 -11 11 -24 51
-43 31 -15 60 -32 63 -36 3 -4 10 -7 15 -5 5 2 10 -1 11 -6 1 -5 26 -21 55
-36 48 -25 55 -26 71 -12 9 8 17 13 18 11 0 -2 2 -12 4 -21 2 -11 -2 -15 -11
-11 -30 11 -12 -8 25 -27 32 -16 46 -18 68 -10 27 10 27 9 8 -6 -20 -16 -20
-16 3 -9 23 7 32 -9 10 -18 -7 -3 2 -8 20 -12 17 -4 32 -12 32 -17 0 -5 6 -8
12 -6 7 3 19 -2 27 -9 7 -8 26 -17 42 -20 16 -3 27 -9 24 -12 -4 -8 63 -47 69
-40 2 2 5 315 7 696 3 570 6 687 17 667 15 -28 24 -32 15 -6 -6 15 -5 15 11 3
13 -11 20 -11 28 -3 17 17 33 15 18 -3 -7 -8 -20 -15 -28 -15 -12 0 -11 -4 6
-16 12 -8 26 -13 31 -10 4 3 17 -4 27 -15 10 -11 24 -17 31 -14 8 2 12 1 8 -4
-8 -14 18 -19 37 -7 13 8 21 7 30 -2 9 -9 7 -12 -12 -12 -22 -1 -23 -2 -7 -11
10 -6 25 -8 33 -5 8 3 14 -1 14 -10 0 -8 4 -13 9 -10 5 3 11 -1 15 -9 3 -8 13
-15 23 -15 16 0 16 2 3 11 -13 9 -13 10 0 6 8 -2 15 -9 15 -16 0 -6 24 -25 53
-41 28 -17 52 -27 52 -24 0 4 9 -1 19 -10 11 -10 25 -15 32 -10 7 4 10 3 6 -3
-3 -5 9 -17 28 -26 35 -17 50 -7 18 12 -15 9 -15 10 -2 11 20 0 39 -20 39 -43
0 -10 5 -15 10 -12 6 3 10 2 10 -3 0 -9 64 -42 83 -42 7 0 25 -11 41 -25 16
-14 34 -25 40 -25 6 0 4 5 -4 11 -11 8 -8 9 15 5 27 -5 27 -4 -10 15 -22 12
-43 26 -46 32 -4 5 -17 7 -29 4 -16 -4 -20 -2 -16 8 3 8 -3 19 -12 25 -13 8
-10 9 13 4 17 -4 34 -13 38 -21 4 -7 22 -13 38 -13 33 0 31 16 -4 29 l-21 8
21 5 c28 8 83 -20 76 -38 -3 -8 -12 -14 -20 -14 -21 0 -10 -23 18 -37 18 -10
20 -13 7 -13 -10 0 -18 -4 -18 -10 0 -5 8 -10 18 -11 11 0 12 -2 4 -6 -7 -3
-19 1 -27 7 -9 7 -15 8 -15 2 0 -11 23 -22 47 -22 13 0 15 13 10 93 -4 50 -7
118 -7 150 l0 59 -97 -4 c-86 -3 -98 -6 -101 -22 -3 -15 1 -18 17 -13 17 4 21
1 21 -19 0 -13 -4 -24 -10 -24 -5 0 -10 5 -10 10 0 6 -9 10 -20 10 -16 0 -20
7 -20 30 0 19 5 30 15 31 8 1 21 2 28 3 8 1 12 23 12 76 l0 75 -77 3 -78 3 0
74 c0 59 -3 75 -15 75 -7 0 -18 6 -22 14 -4 8 -24 16 -43 18 -53 5 -47 32 8
36 37 3 43 1 40 -15 -4 -26 25 -27 63 -3 27 17 29 21 11 17 -17 -4 -22 -2 -18
8 2 7 -2 16 -10 19 -10 4 -13 2 -8 -7 4 -6 -3 -2 -15 11 -12 12 -27 22 -34 21
-9 0 -9 -2 1 -6 21 -8 13 -20 -14 -20 -14 0 -22 2 -18 6 20 14 10 40 -18 50
-26 9 -28 9 -19 -3 10 -11 8 -15 -6 -19 -16 -4 -15 -6 5 -12 12 -4 22 -11 22
-15 0 -9 -51 -32 -58 -26 -3 3 6 10 19 15 24 10 24 10 2 10 -13 1 -23 6 -23
12 0 5 -5 7 -11 3 -7 -4 -9 1 -7 12 2 11 10 18 16 16 18 -3 28 28 12 38 -7 4
-27 6 -44 4 -17 -3 -49 -4 -70 -4 -22 0 -43 -5 -47 -11 -7 -13 -29 -4 -29 12
0 6 4 8 9 4 5 -3 12 -1 16 5 3 5 16 10 28 10 20 1 20 2 5 11 -10 5 -18 17 -18
24 0 8 -5 15 -12 15 -6 0 -8 3 -4 7 3 4 -22 20 -56 36 -35 16 -65 33 -68 36
-8 11 -98 61 -109 61 -6 0 -19 7 -30 16 -10 9 -56 36 -102 61 -45 24 -88 48
-95 54 -7 6 -19 7 -26 3 -7 -4 -10 -4 -6 1 8 8 -33 34 -142 88 -36 17 -67 34
-70 37 -9 9 -59 40 -65 40 -4 0 -3 -4 0 -10 3 -6 -1 -7 -9 -4 -9 3 -14 10 -11
14 3 5 -7 15 -22 23 -16 8 -49 26 -75 40 -27 15 -54 25 -60 23 -7 -1 -9 -1 -5
2 12 6 -44 42 -66 42 -10 0 -16 4 -13 8 3 5 -15 18 -40 30 l-44 22 2 -287z
m484 0 c-6 -6 -36 9 -36 18 0 5 9 4 20 -3 10 -7 18 -14 16 -15z m84 -83 c0 -5
-2 -10 -4 -10 -3 0 -8 5 -11 10 -3 6 -1 10 4 10 6 0 11 -4 11 -10z m40 -10
c-8 -5 -19 -10 -25 -10 -5 0 -3 5 5 10 8 5 20 10 25 10 6 0 3 -5 -5 -10z m75
-40 c3 -6 -1 -13 -10 -16 -19 -8 -30 0 -20 15 8 14 22 14 30 1z m105 -36 c0
-2 -9 0 -20 6 -11 6 -20 13 -20 16 0 2 9 0 20 -6 11 -6 20 -13 20 -16z m23
-21 c-6 -15 -9 -15 -40 -7 -34 9 -28 20 11 20 24 0 32 -4 29 -13z m51 -39 c4
-10 -2 -14 -18 -14 -29 0 -39 10 -25 26 12 15 35 9 43 -12z m-124 -18 c0 -11
-19 -15 -25 -6 -3 5 1 10 9 10 9 0 16 -2 16 -4z m60 -17 c0 -5 -4 -9 -10 -9
-5 0 -10 7 -10 16 0 8 5 12 10 9 6 -3 10 -10 10 -16z m269 -52 c-2 -1 -13 -9
-24 -17 -19 -14 -19 -14 -6 3 7 9 18 17 24 17 6 0 8 -1 6 -3z m31 -11 c0 -2
-7 -7 -16 -10 -8 -3 -12 -2 -9 4 6 10 25 14 25 6z m7 -45 c1 -13 -4 -18 -15
-16 -9 2 -19 4 -21 4 -3 1 4 8 15 16 10 8 19 15 19 15 1 0 1 -9 2 -19z m143
-51 c0 -5 -7 -10 -15 -10 -8 0 -15 5 -15 10 0 6 7 10 15 10 8 0 15 -4 15 -10z
m-825 -50 c7 -12 -2 -12 -30 0 -19 8 -19 9 2 9 12 1 25 -3 28 -9z m873 -102
c-3 -7 -13 -13 -23 -13 -10 0 -20 6 -22 13 -3 7 5 12 22 12 17 0 25 -5 23 -12z
m-418 -98 c0 -5 -5 -10 -11 -10 -5 0 -7 5 -4 10 3 6 8 10 11 10 2 0 4 -4 4
-10z m180 -81 c0 -5 -9 -9 -20 -9 -19 0 -26 11 -14 23 8 8 34 -3 34 -14z
m-163 5 c-3 -3 -12 -4 -19 -1 -8 3 -5 6 6 6 11 1 17 -2 13 -5z m198 -33 c7
-12 -12 -24 -25 -16 -11 7 -4 25 10 25 5 0 11 -4 15 -9z m85 -31 c13 -8 13
-10 -2 -10 -9 0 -20 5 -23 10 -8 13 5 13 25 0z m68 -21 c11 0 12 -2 4 -6 -15
-6 -42 14 -42 31 0 6 5 3 11 -6 5 -10 18 -18 27 -19z m135 -83 c-2 -3 -3 -10
-3 -16 0 -16 -24 -11 -42 9 -15 18 -14 18 16 16 17 -1 30 -5 29 -9z m-103 -20
c0 -3 -4 -8 -10 -11 -5 -3 -10 -1 -10 4 0 6 5 11 10 11 6 0 10 -2 10 -4z m30
-16 c0 -5 -2 -10 -4 -10 -3 0 -8 5 -11 10 -3 6 -1 10 4 10 6 0 11 -4 11 -10z
m103 -19 c4 -16 12 -19 47 -17 28 2 38 0 28 -6 -10 -7 -10 -11 0 -15 6 -2 12
-9 12 -14 0 -5 -11 -2 -25 7 -13 9 -40 16 -60 17 -23 1 -31 4 -22 10 7 5 2 6
-15 3 -21 -5 -28 -2 -28 8 0 8 10 17 23 19 12 2 25 5 28 6 4 0 9 -8 12 -18z
m-1223 -281 c13 -8 13 -10 -2 -10 -11 0 -15 -5 -12 -14 3 -8 -3 -15 -14 -18
-21 -6 -26 18 -8 39 13 15 17 15 36 3z m-58 -94 c2 -22 9 -41 16 -44 9 -3 11
4 7 25 -5 25 -4 26 4 6 6 -13 13 -23 16 -23 4 0 4 4 0 10 -9 14 32 50 50 44
17 -7 20 -20 5 -29 -5 -3 -10 -1 -10 4 0 6 -7 11 -15 11 -8 0 -15 -4 -15 -10
0 -5 5 -10 10 -10 6 0 9 -6 8 -12 -2 -7 8 -14 21 -16 15 -2 21 0 17 7 -4 6 -2
11 3 11 6 0 11 -4 11 -10 0 -16 28 -12 38 6 8 15 10 15 15 0 4 -9 2 -15 -5
-13 -21 4 -22 -92 -2 -114 10 -11 12 -19 6 -19 -7 0 -12 -4 -12 -10 0 -15 30
-12 31 3 0 10 2 10 6 0 2 -7 14 -13 25 -13 15 0 19 5 15 20 -3 12 -1 18 5 14
7 -5 9 2 4 21 -6 23 -5 25 7 14 7 -8 21 -26 31 -41 13 -20 14 -27 4 -32 -7 -3
-4 -5 8 -2 17 3 20 -1 16 -20 -2 -13 0 -30 6 -37 10 -13 9 -41 -3 -69 -6 -15
-20 -18 -81 -18 l-73 0 -3 73 -3 72 -82 3 -83 3 0 58 c0 32 -3 87 -6 122 -4
35 -4 62 -1 59 3 -3 7 -23 9 -44z m135 22 c25 -24 30 -38 11 -37 -18 0 -63 59
-47 59 7 0 23 -10 36 -22z m73 -93 c11 -13 10 -14 -4 -9 -9 3 -16 10 -16 15 0
13 6 11 20 -6z m160 -190 c11 -13 10 -14 -4 -9 -9 3 -16 10 -16 15 0 13 6 11
20 -6z m20 -40 c10 -12 10 -15 -4 -15 -9 0 -16 7 -16 15 0 8 2 15 4 15 2 0 9
-7 16 -15z m-361 -66 c-15 -9 -32 -2 -24 11 3 5 13 6 21 3 12 -4 13 -8 3 -14z
m146 -9 c3 -6 0 -10 -7 -10 -18 1 -49 26 -42 33 8 7 40 -8 49 -23z m237 1 c3
-21 1 -28 -9 -24 -14 6 -18 53 -4 53 5 0 11 -13 13 -29z m-346 1 c-3 -5 9 -9
26 -10 31 -1 57 -16 46 -28 -4 -3 -17 0 -30 7 -24 13 -28 15 -63 18 -17 1 -18
3 -5 11 19 12 33 13 26 2z m399 -12 c3 -5 1 -10 -4 -10 -6 0 -11 5 -11 10 0 6
2 10 4 10 3 0 8 -4 11 -10z m-150 -36 c-22 -17 -32 -17 -40 -4 -4 6 -11 8 -16
5 -5 -3 -6 1 -3 9 7 19 34 25 58 13 19 -9 19 -10 1 -23z m-87 15 c-2 -6 -8
-10 -13 -10 -5 0 -11 4 -13 10 -2 6 4 11 13 11 9 0 15 -5 13 -11z m322 -106
c0 -4 -16 16 -35 44 -19 29 -35 56 -35 60 0 4 16 -16 35 -44 19 -29 35 -56 35
-60z m-350 57 c8 -5 11 -10 5 -10 -5 0 -17 5 -25 10 -8 5 -10 10 -5 10 6 0 17
-5 25 -10z m47 -26 c-3 -3 -12 -4 -19 -1 -8 3 -5 6 6 6 11 1 17 -2 13 -5z
m139 -81 c-8 -9 -37 18 -30 28 3 5 12 2 21 -6 8 -9 13 -19 9 -22z m209 -3 c3
-5 1 -10 -4 -10 -6 0 -11 5 -11 10 0 6 2 10 4 10 3 0 8 -4 11 -10z m-105 -50
c8 -5 12 -11 10 -14 -3 -2 -14 2 -24 10 -22 15 -10 19 14 4z m135 -10 c3 -5 2
-10 -4 -10 -5 0 -13 5 -16 10 -3 6 -2 10 4 10 5 0 13 -4 16 -10z m65 -90 c0
-5 -5 -10 -11 -10 -5 0 -7 5 -4 10 3 6 8 10 11 10 2 0 4 -4 4 -10z"/>
<path d="M3615 5780 c3 -5 8 -10 11 -10 2 0 4 5 4 10 0 6 -5 10 -11 10 -5 0
-7 -4 -4 -10z"/>
<path d="M4363 6947 c3 -10 57 -30 64 -24 1 2 -13 10 -33 19 -21 9 -34 12 -31
5z"/>
<path d="M4405 6900 c-3 -5 -2 -10 4 -10 5 0 13 5 16 10 3 6 2 10 -4 10 -5 0
-13 -4 -16 -10z"/>
<path d="M4718 6763 c6 -2 12 -9 12 -14 0 -6 -7 -6 -18 0 -12 6 -23 5 -37 -6
-15 -12 -16 -14 -3 -10 12 4 15 2 11 -9 -4 -11 4 -14 38 -14 67 0 78 13 34 39
-20 11 -39 21 -43 20 -4 0 -1 -3 6 -6z m47 -33 c3 -5 2 -10 -4 -10 -5 0 -13 5
-16 10 -3 6 -2 10 4 10 5 0 13 -4 16 -10z"/>
<path d="M6800 6666 c-113 -50 -226 -100 -253 -110 -26 -10 -52 -26 -57 -36
-12 -22 -14 -503 -2 -498 4 2 104 51 222 109 118 59 239 116 268 129 l52 22 0
239 c0 185 -3 239 -12 238 -7 0 -105 -42 -218 -93z"/>
<path d="M3330 6721 c0 -17 7 -31 16 -35 10 -4 14 -13 10 -28 -3 -13 -3 -17 0
-11 4 10 9 10 20 -1 8 -8 14 -18 14 -23 0 -4 11 -20 24 -34 14 -15 38 -53 56
-85 17 -32 34 -61 38 -64 5 -3 23 -30 41 -60 19 -30 36 -57 40 -60 9 -7 61
-88 61 -95 0 -3 11 -20 26 -38 14 -18 25 -35 24 -40 -1 -21 131 -117 162 -117
4 0 8 111 8 248 l0 247 -48 19 c-26 10 -130 55 -232 98 -102 44 -202 86 -222
94 l-38 13 0 -28z"/>
<path d="M4799 6718 c-8 -28 -3 -39 26 -52 18 -9 39 -16 47 -15 7 0 2 5 -12
11 -14 6 -20 12 -13 15 7 2 22 -1 34 -8 20 -10 20 -12 6 -21 -11 -5 -30 -5
-52 1 -21 6 -37 6 -41 0 -3 -5 6 -9 20 -9 14 0 25 -3 25 -7 -3 -20 2 -31 19
-37 66 -24 72 -24 72 -9 0 9 -7 21 -17 28 -9 7 -13 17 -9 23 8 14 36 4 33 -11
-1 -6 8 -13 21 -15 12 -2 22 2 22 8 0 6 -4 9 -9 6 -5 -3 -15 1 -22 10 -20 25
-113 68 -117 55 -2 -6 -8 -11 -14 -11 -5 0 -6 9 -3 20 4 11 2 20 -4 20 -6 0
-11 -1 -12 -2z"/>
<path d="M3360 6600 c0 -19 3 -21 12 -12 9 9 9 15 0 24 -9 9 -12 7 -12 -12z"/>
<path d="M4794 6595 c-12 -30 4 -45 45 -45 32 0 39 3 35 15 -4 8 -15 15 -25
15 -10 0 -19 7 -19 15 0 8 -7 15 -15 15 -9 0 -18 -7 -21 -15z"/>
<path d="M4978 6599 c-10 -5 -15 -17 -12 -27 5 -13 4 -14 -4 -3 -10 14 -32 7
-32 -10 0 -10 110 -11 144 -2 15 4 16 7 5 14 -20 13 -41 11 -33 -3 5 -7 3 -8
-5 -4 -7 5 -10 14 -7 21 8 22 -27 31 -56 14z m32 -9 c-20 -13 -33 -13 -25 0 3
6 14 10 23 10 15 0 15 -2 2 -10z m5 -20 c-3 -5 -11 -10 -16 -10 -6 0 -7 5 -4
10 3 6 11 10 16 10 6 0 7 -4 4 -10z"/>
<path d="M3400 6535 c0 -8 5 -15 10 -15 6 0 10 7 10 15 0 8 -4 15 -10 15 -5 0
-10 -7 -10 -15z"/>
<path d="M5115 6540 c-4 -6 -6 -25 -5 -43 1 -17 2 -116 1 -219 -1 -172 -3
-188 -18 -188 -14 -1 -13 -4 6 -14 23 -13 23 -14 5 -25 -10 -7 -12 -10 -4 -7
8 3 23 9 33 12 13 5 17 17 16 48 -1 38 -2 39 -9 11 l-7 -30 -4 35 c-2 19 -2
53 1 75 l4 40 7 -40 c3 -23 6 14 6 85 -1 114 -1 118 -7 45 l-6 -80 -2 88 c-1
52 2 87 8 87 6 0 10 12 10 28 0 19 -3 23 -9 13 -6 -9 -10 -5 -13 16 -4 27 -2
29 21 26 l26 -4 -28 16 c-15 9 -25 20 -22 25 4 6 4 10 1 10 -3 0 -8 -5 -11
-10z"/>
<path d="M3440 6508 c0 -9 5 -20 10 -23 13 -8 13 5 0 25 -8 13 -10 13 -10 -2z"/>
<path d="M5163 6455 c0 -22 2 -30 4 -17 2 12 2 30 0 40 -3 9 -5 -1 -4 -23z"/>
<path d="M3456 6451 c-4 -7 -5 -15 -2 -18 9 -9 19 4 14 18 -4 11 -6 11 -12 0z"/>
<path d="M3440 6410 c0 -5 -7 -10 -15 -10 -8 0 -15 -4 -15 -10 0 -5 9 -10 20
-10 13 0 20 7 20 20 0 11 -2 20 -5 20 -3 0 -5 -4 -5 -10z"/>
<path d="M5164 6315 c0 -49 1 -71 3 -48 2 23 2 64 0 90 -2 26 -3 8 -3 -42z"/>
<path d="M3530 6340 c0 -5 7 -10 16 -10 8 0 12 5 9 10 -3 6 -10 10 -16 10 -5
0 -9 -4 -9 -10z"/>
<path d="M3378 6313 c12 -2 32 -2 45 0 12 2 2 4 -23 4 -25 0 -35 -2 -22 -4z"/>
<path d="M3365 6290 c3 -5 12 -7 20 -3 21 7 19 13 -6 13 -11 0 -18 -4 -14 -10z"/>
<path d="M3420 6291 c0 -6 5 -13 10 -16 6 -3 10 1 10 9 0 9 -4 16 -10 16 -5 0
-10 -4 -10 -9z"/>
<path d="M3390 6260 c20 -13 33 -13 25 0 -3 6 -14 10 -23 10 -15 0 -15 -2 -2
-10z"/>
<path d="M3606 6248 c5 -25 3 -28 -17 -28 -20 0 -21 2 -9 11 11 8 9 9 -10 3
-31 -8 -34 -10 -26 -23 10 -15 74 -10 81 6 3 8 -2 24 -11 36 -15 22 -15 22 -8
-5z"/>
<path d="M4270 6213 c0 -32 4 -84 10 -115 12 -77 14 -176 5 -265 -5 -50 -4
-73 3 -73 7 0 11 27 11 71 0 55 4 76 17 88 15 15 16 14 10 -9 -9 -35 -20 -156
-13 -150 2 3 8 27 12 55 8 60 12 66 21 30 4 -15 2 -31 -5 -38 -14 -14 -15 -47
-1 -47 6 0 10 8 11 18 1 21 27 -55 28 -83 1 -33 -18 5 -20 40 -1 17 -5 -15 -9
-70 -4 -55 -3 -101 1 -103 12 -5 11 -103 0 -121 -5 -7 -14 -10 -20 -7 -7 5
-11 -5 -11 -27 0 -30 3 -34 20 -30 18 5 20 0 20 -40 0 -37 -4 -49 -21 -57 -18
-10 -20 -19 -17 -86 2 -45 -1 -75 -7 -78 -7 -2 -9 10 -7 32 4 33 3 35 -12 20
-13 -13 -16 -37 -16 -117 0 -60 4 -102 11 -106 16 -10 24 4 11 17 -7 7 -12 27
-12 45 0 30 3 33 30 33 26 0 30 -3 30 -29 0 -16 3 -37 6 -46 5 -11 0 -18 -15
-22 -24 -6 -28 -30 -6 -35 13 -2 12 -6 -5 -21 -14 -12 -20 -13 -19 -5 3 25 -1
38 -12 38 -12 0 -8 -42 5 -52 5 -3 25 -4 45 -2 34 5 35 4 16 -10 -19 -15 -19
-15 4 -9 18 5 22 3 16 -7 -5 -8 -4 -11 3 -6 6 3 9 15 7 24 -2 14 2 18 18 16
33 -4 34 -5 7 -14 -25 -7 -24 -9 24 -24 12 -4 17 -13 14 -24 -4 -14 0 -18 16
-16 12 1 22 3 24 3 1 1 -7 10 -19 22 -23 23 -18 39 6 19 13 -11 15 -7 15 34 0
25 5 46 10 46 17 0 12 -107 -6 -124 -8 -9 -20 -14 -25 -11 -5 4 -9 4 -9 1 0
-8 81 -46 97 -46 7 0 13 -3 13 -7 0 -5 13 -15 29 -25 28 -15 30 -15 30 0 1 10
4 323 7 697 l6 680 -180 93 c-99 50 -185 92 -191 92 -7 0 -11 -21 -11 -57z
m137 -630 c-3 -10 -5 -4 -5 12 0 17 2 24 5 18 2 -7 2 -21 0 -30z m23 -71 c0
-13 4 -31 9 -41 15 -27 26 -125 14 -118 -6 4 -14 34 -17 68 -5 42 -11 58 -17
52 -7 -7 -7 -23 0 -49 13 -47 14 -67 2 -60 -9 6 -26 74 -23 89 4 14 11 72 11
92 1 17 3 17 11 5 5 -8 10 -25 10 -38z m62 -248 c13 -70 13 -72 -5 -62 -14 7
-18 18 -15 44 2 19 1 34 -2 34 -3 0 -10 13 -16 28 -9 24 -8 28 7 28 13 0 20
-16 31 -72z m40 -170 c5 -12 8 -30 6 -40 -4 -16 -6 -15 -16 8 -14 34 -32 45
-32 19 0 -11 5 -23 10 -26 6 -3 10 -26 10 -51 0 -29 -4 -43 -10 -39 -6 4 -8
21 -4 40 4 21 1 35 -6 40 -9 6 -11 -6 -8 -47 4 -50 2 -55 -15 -50 -13 3 -15 8
-8 15 6 6 11 41 11 78 0 59 3 68 20 74 11 3 21 14 21 23 1 13 2 12 6 -3 2 -11
9 -30 15 -41z m52 -192 c4 -7 0 -19 -9 -28 -15 -15 -15 -14 -10 12 5 23 4 26
-5 14 -10 -13 -11 -12 -6 3 3 10 7 33 7 50 l1 32 7 -35 c4 -20 11 -41 15 -48z
m-154 28 c0 -9 -51 -18 -69 -12 -8 3 -9 8 -2 16 11 13 71 10 71 -4z m60 -33
c0 -19 -10 -27 -26 -20 -21 8 -17 33 6 33 11 0 20 -6 20 -13z m126 -114 c-6
-7 -24 22 -26 42 -5 45 2 47 15 5 8 -24 13 -46 11 -47z m-32 21 c4 -10 1 -14
-6 -12 -15 5 -23 28 -10 28 5 0 13 -7 16 -16z m-50 -26 c-5 -7 -2 -9 8 -6 8 4
15 1 15 -6 0 -10 -7 -11 -28 -2 -19 7 -24 13 -16 18 18 12 29 10 21 -4z m71
-19 c11 -17 0 -20 -21 -4 -17 13 -17 14 -2 15 9 0 20 -5 23 -11z"/>
<path d="M4481 5224 c0 -11 3 -14 6 -6 3 7 2 16 -1 19 -3 4 -6 -2 -5 -13z"/>
<path d="M5999 6240 c-30 -16 -107 -57 -171 -90 l-118 -60 0 -39 c0 -66 12
-134 21 -119 6 9 9 4 9 -14 0 -15 4 -29 9 -32 4 -3 16 -38 25 -78 10 -40 24
-90 32 -110 7 -21 12 -38 9 -38 -3 0 2 -17 10 -37 8 -21 18 -60 24 -88 5 -27
17 -77 26 -110 24 -88 42 -159 64 -252 5 -21 20 -75 33 -120 14 -45 20 -81 14
-80 -5 1 -10 -7 -11 -17 0 -18 -35 -33 -35 -15 0 5 -4 9 -10 9 -5 0 -9 -12 -8
-27 0 -16 -3 -37 -7 -49 -5 -17 -1 -23 22 -33 26 -10 36 -9 80 14 l50 26 6
582 c6 626 4 800 -10 804 -5 2 -34 -10 -64 -27z m20 -1345 l0 -20 -9 20 c-5
11 -9 27 -9 35 -1 13 0 13 9 0 5 -8 9 -24 9 -35z m-39 -20 c0 -8 -4 -15 -9
-15 -13 0 -22 16 -14 24 11 11 23 6 23 -9z m-10 -25 c8 -5 11 -10 5 -10 -5 0
-17 5 -25 10 -8 5 -10 10 -5 10 6 0 17 -5 25 -10z"/>
<path d="M3499 6231 c11 -7 11 -9 0 -14 -8 -3 -9 -6 -3 -6 6 -1 16 5 22 12 8
10 6 13 -11 14 -15 2 -18 0 -8 -6z"/>
<path d="M3585 6189 c-4 -6 -14 -8 -24 -4 -11 4 -13 3 -5 -5 12 -12 44 -4 44
11 0 12 -7 11 -15 -2z"/>
<path d="M3601 6176 c-10 -11 -8 -16 8 -21 23 -7 71 3 71 16 0 5 -7 9 -15 9
-8 0 -15 -4 -15 -10 0 -5 -7 -10 -16 -10 -10 0 -14 6 -10 15 7 19 -8 20 -23 1z"/>
<path d="M3655 6140 c-8 -13 5 -13 25 0 13 8 13 10 -2 10 -9 0 -20 -4 -23 -10z"/>
<path d="M4980 6078 c0 -4 4 -8 9 -8 6 0 12 4 15 8 3 5 -1 9 -9 9 -8 0 -15 -4
-15 -9z"/>
<path d="M5017 6075 c-4 -8 -2 -17 3 -20 6 -4 10 -4 10 -1 0 2 3 11 6 20 3 9
2 16 -4 16 -5 0 -12 -7 -15 -15z"/>
<path d="M5056 6057 c-18 -13 -18 -14 -1 -21 10 -3 20 -4 23 -1 3 3 -1 5 -9 5
-8 1 -3 7 11 15 16 9 19 14 9 15 -8 0 -23 -6 -33 -13z"/>
<path d="M5102 6021 c-11 -7 -11 -9 0 -14 9 -3 15 1 15 9 0 8 -1 14 -1 14 -1
0 -7 -4 -14 -9z"/>
<path d="M5144 6004 c3 -9 6 -19 6 -22 0 -9 20 21 20 31 0 4 -7 7 -16 7 -11 0
-14 -5 -10 -16z"/>
<path d="M5428 5929 c-98 -49 -178 -93 -178 -99 0 -5 7 -27 15 -47 8 -21 26
-81 40 -133 14 -52 30 -108 35 -125 16 -53 47 -178 65 -260 9 -44 21 -89 27
-101 5 -11 8 -24 7 -30 -1 -5 0 -11 1 -14 1 -3 13 -52 26 -110 13 -58 29 -123
34 -145 5 -22 20 -84 33 -137 16 -64 20 -98 13 -98 -6 0 -4 -5 6 -10 9 -6 23
-7 31 -4 22 8 29 221 25 855 l-3 547 -177 -89z"/>
<path d="M4754 5898 c4 -62 9 -138 11 -168 2 -30 6 -183 8 -340 2 -157 2 -247
-2 -200 -4 50 -7 -50 -8 -242 l-2 -328 39 -20 c40 -20 79 -29 50 -10 -8 5 -11
12 -7 16 9 10 39 -17 34 -30 -7 -17 38 -36 55 -24 10 7 8 8 -5 4 -10 -3 -15
-2 -12 3 3 5 30 13 61 17 43 5 58 3 65 -7 7 -11 9 -11 9 2 0 9 7 30 15 45 l15
29 0 -27 c0 -15 5 -30 10 -33 6 -3 10 -12 9 -18 0 -8 -2 -8 -6 1 -4 10 -8 10
-20 0 -8 -6 -37 -12 -64 -13 -27 -1 -54 -6 -61 -13 -8 -8 -2 -9 26 -1 21 6 40
8 43 6 2 -3 -11 -8 -29 -13 l-33 -7 40 -18 c22 -10 42 -14 43 -8 6 14 22 11
22 -5 0 -8 5 -18 11 -22 7 -4 10 3 9 17 -3 39 -1 51 10 44 6 -4 8 -21 4 -41
-5 -27 -3 -34 10 -34 14 0 16 33 16 328 0 181 3 491 7 690 5 274 3 362 -5 362
-7 0 -92 38 -188 85 -97 47 -179 85 -182 85 -3 0 -2 -51 2 -112z m33 -210 c-3
-8 -6 -5 -6 6 -1 11 2 17 5 13 3 -3 4 -12 1 -19z m22 -61 c0 -21 -1 -21 -9 -2
-12 28 -12 37 0 30 6 -3 10 -16 9 -28z m8 -36 c0 -3 7 -21 16 -38 10 -18 13
-33 7 -33 -5 0 -10 -12 -10 -26 0 -14 -4 -23 -10 -19 -14 9 -12 42 3 48 9 3 9
7 0 17 -12 13 -19 -11 -26 -95 -2 -22 -4 3 -5 56 -2 77 1 96 12 96 8 0 14 -3
13 -6z m43 -130 c0 -11 4 -22 9 -25 11 -7 21 -56 11 -56 -4 0 -10 14 -14 31
-3 17 -10 28 -16 24 -6 -4 -10 5 -10 19 0 14 5 26 10 26 6 0 10 -9 10 -19z m8
-96 c17 -36 15 -41 -8 -20 -20 18 -27 45 -12 45 5 0 14 -11 20 -25z m-58 -85
c4 0 11 -36 15 -81 5 -58 11 -82 23 -86 25 -10 44 27 37 70 -5 35 -4 37 10 24
8 -9 15 -26 16 -39 l0 -23 10 24 c6 16 6 28 -1 35 -5 5 -10 24 -9 41 1 28 2
26 15 -15 8 -25 12 -59 9 -77 -3 -17 -1 -34 5 -38 5 -3 11 -23 11 -43 2 -34 2
-35 7 -7 4 28 5 27 18 -20 16 -60 17 -75 5 -75 -5 0 -12 12 -14 28 -2 15 -3
-1 -3 -35 1 -35 2 -63 4 -63 1 0 7 12 13 27 12 33 25 19 35 -42 3 -22 11 -46
16 -52 7 -9 7 -13 -1 -13 -6 0 -17 15 -25 33 l-14 32 -1 -32 c-1 -18 4 -33 9
-33 6 0 10 -4 10 -10 0 -5 -9 -10 -20 -10 -11 0 -17 5 -15 13 3 6 1 26 -3 42
l-9 30 -7 -32 c-4 -18 -5 -37 -1 -43 4 -6 -20 -10 -69 -10 l-76 0 0 -75 c0
-53 -4 -75 -12 -75 -10 0 -13 45 -13 193 1 258 7 521 12 475 2 -21 8 -38 13
-38z m30 35 c0 -14 -2 -25 -4 -25 -2 0 -6 11 -8 25 -3 14 -1 25 3 25 5 0 9
-11 9 -25z m61 -35 c-4 -3 -11 -12 -14 -20 -3 -8 -4 3 -2 25 6 61 6 62 16 30
4 -16 5 -32 0 -35z m169 -609 c0 -10 -3 -11 -9 -5 -6 5 -12 34 -15 64 l-6 55
15 -50 c8 -27 15 -57 15 -64z m-43 47 c-3 -7 -5 -2 -5 12 0 14 2 19 5 13 2 -7
2 -19 0 -25z m23 -85 c0 -32 -5 -28 -14 10 -4 19 -3 26 4 22 5 -3 10 -18 10
-32z m-174 8 c-4 -5 2 -7 13 -4 11 3 21 -2 25 -13 8 -21 2 -29 -16 -18 -7 5
-19 9 -26 10 -44 7 -53 34 -11 34 11 0 18 -4 15 -9z m134 -1 c10 -7 11 -10 3
-11 -7 -1 -19 -2 -25 -3 -21 -4 -31 6 -17 15 18 11 21 11 39 -1z m17 -126 c-3
-3 -12 -4 -19 -1 -8 3 -5 6 6 6 11 1 17 -2 13 -5z"/>
<path d="M4281 5678 c1 -69 2 -71 10 -28 11 64 11 100 -1 100 -6 0 -9 -30 -9
-72z"/>
<path d="M4310 5718 c0 -21 5 -38 10 -38 13 0 13 40 0 60 -7 11 -10 5 -10 -22z"/>
<path d="M4286 5593 c-3 -3 -6 -21 -6 -40 0 -23 5 -33 15 -33 10 0 15 10 15
34 0 34 -11 52 -24 39z"/>
<path d="M4764 5405 c0 -66 1 -92 3 -57 2 34 2 88 0 120 -2 31 -3 3 -3 -63z"/>
<path d="M4277 5435 c5 -33 8 -100 7 -150 -1 -77 0 -83 7 -40 9 58 1 213 -13
235 -5 9 -5 -9 -1 -45z"/>
<path d="M4312 5470 c0 -14 2 -19 5 -12 2 6 2 18 0 25 -3 6 -5 1 -5 -13z"/>
<path d="M5842 5460 c0 -14 2 -19 5 -12 2 6 2 18 0 25 -3 6 -5 1 -5 -13z"/>
<path d="M5724 5168 c0 -163 1 -175 6 -78 5 97 7 77 9 -125 2 -132 3 -243 2
-247 -2 -12 27 -10 34 2 3 6 1 10 -6 10 -7 0 -5 8 6 20 18 20 18 21 0 14 -14
-6 -17 -4 -13 8 4 9 2 20 -2 24 -5 5 -10 134 -11 287 -2 194 -6 277 -14 277
-7 0 -11 -59 -11 -192z"/>
<path d="M5821 5323 c2 -29 8 -43 17 -43 10 0 12 8 7 33 -11 51 -26 58 -24 10z"/>
<path d="M5922 5180 c0 -14 2 -19 5 -12 2 6 2 18 0 25 -3 6 -5 1 -5 -13z"/>
<path d="M5380 5169 c0 -11 4 -18 10 -14 5 3 7 12 3 20 -7 21 -13 19 -13 -6z"/>
<path d="M5925 5105 c1 -19 6 -34 11 -33 14 5 14 30 0 50 -11 16 -13 14 -11
-17z"/>
<path d="M5947 5030 c3 -12 -2 -29 -11 -39 -19 -21 -8 -35 19 -25 13 5 15 14
11 37 -3 16 -6 33 -6 38 0 5 -4 9 -9 9 -5 0 -7 -9 -4 -20z"/>
<path d="M5723 4920 c0 -25 2 -35 4 -22 2 12 2 32 0 45 -2 12 -4 2 -4 -23z"/>
<path d="M5914 4832 c7 -12 -21 -37 -43 -38 -9 -1 -26 -2 -39 -3 -21 -1 -22
-2 -8 -17 17 -16 41 -10 30 8 -4 6 1 8 13 4 12 -4 25 -1 33 9 7 8 15 13 19 11
4 -3 13 -1 20 4 11 6 8 11 -9 20 -12 7 -20 8 -16 2z"/>
<path d="M4416 4816 c21 -15 30 -14 19 3 -3 6 -14 11 -23 11 -13 0 -13 -2 4
-14z"/>
<path d="M5723 4750 c0 -30 2 -43 4 -27 2 15 2 39 0 55 -2 15 -4 2 -4 -28z"/>
<path d="M5800 4750 c-13 -8 -12 -10 3 -10 9 0 17 5 17 10 0 12 -1 12 -20 0z"/>
<path d="M5520 4610 c15 -9 17 -8 -36 -25 -9 -3 -14 -8 -11 -11 3 -3 22 2 42
12 26 12 33 19 23 25 -7 5 -17 9 -23 9 -5 0 -3 -4 5 -10z"/>
<path d="M5270 4549 c0 -5 4 -8 8 -5 5 3 24 -3 44 -13 34 -19 34 -19 47 2 10
16 10 19 1 10 -9 -9 -22 -8 -52 3 -48 17 -48 17 -48 3z"/>
<path d="M5417 4549 c7 -7 15 -10 18 -7 3 3 -2 9 -12 12 -14 6 -15 5 -6 -5z"/>
<path d="M5310 4510 c8 -5 20 -10 25 -10 6 0 3 5 -5 10 -8 5 -19 10 -25 10 -5
0 -3 -5 5 -10z"/>
<path d="M5270 4490 c-8 -15 -8 -20 2 -20 26 0 37 14 22 28 -11 10 -15 8 -24
-8z"/>
<path d="M2050 3840 c-19 -19 -20 -31 -20 -389 0 -331 2 -370 17 -382 17 -15
144 -20 176 -7 15 7 17 26 17 203 0 107 3 195 8 195 4 0 25 -46 46 -103 21
-56 52 -133 69 -170 l30 -68 90 3 91 3 60 162 c34 89 64 165 69 169 4 4 7 -78
7 -183 0 -140 3 -193 13 -201 6 -6 44 -13 82 -17 63 -6 72 -5 93 15 l22 21 0
372 c0 277 -3 376 -12 385 -8 8 -47 12 -110 12 -90 0 -99 -2 -112 -22 -8 -13
-46 -99 -84 -193 -99 -241 -114 -275 -121 -275 -4 0 -44 89 -90 198 -45 108
-93 217 -104 242 l-22 45 -97 3 c-87 2 -99 1 -118 -18z"/>
<path d="M3083 3848 l-23 -11 0 -377 c0 -308 3 -380 14 -389 9 -8 96 -11 297
-9 l284 3 37 75 c21 41 38 81 38 87 0 10 -56 13 -232 15 l-233 3 -3 63 -3 62
123 0 c68 0 133 3 144 6 16 4 31 27 53 80 17 40 31 76 31 79 0 3 -79 5 -175 5
l-175 0 0 70 0 70 200 0 199 0 41 73 c65 117 89 107 -277 106 -207 0 -326 -4
-340 -11z"/>
<path d="M3980 3851 c-67 -21 -123 -67 -153 -126 -20 -41 -32 -341 -18 -454
13 -98 34 -137 100 -181 l44 -30 247 0 c178 0 249 3 258 12 9 9 12 76 12 240
l0 228 -129 0 c-82 0 -132 -4 -136 -11 -4 -6 -4 -35 0 -66 6 -51 9 -56 41 -69
l35 -15 -3 -62 -3 -62 -134 -3 c-101 -2 -136 1 -143 10 -9 15 -11 280 -2 355
l7 53 166 2 166 3 43 75 c66 117 77 110 -165 109 -115 0 -219 -4 -233 -8z"/>
<path d="M4845 3840 c-18 -20 -18 -22 15 -108 30 -78 146 -331 261 -566 23
-48 53 -95 65 -103 30 -19 143 -14 156 7 7 11 -20 75 -95 230 -58 118 -135
280 -171 360 -97 214 -82 195 -152 198 -50 2 -63 -1 -79 -18z"/>
<path d="M6670 3854 c-94 -18 -148 -68 -177 -161 -25 -82 -25 -426 0 -491 40
-104 97 -143 219 -150 170 -10 255 46 294 193 20 73 19 353 -1 430 -33 128
-94 175 -230 180 -44 2 -91 1 -105 -1z m197 -90 c45 -33 65 -86 75 -198 18
-194 -8 -359 -64 -408 -35 -30 -62 -38 -137 -38 -87 0 -120 12 -149 55 -36 52
-45 105 -44 275 0 220 27 298 112 333 8 4 52 5 97 4 64 -2 88 -6 110 -23z"/>
<path d="M7613 3852 c-10 -6 -13 -87 -15 -327 l-3 -319 -144 255 c-242 427
-216 389 -267 389 l-44 0 0 -395 0 -395 35 0 35 0 2 331 3 331 190 -331 189
-331 38 0 38 0 2 353 c1 193 2 369 2 390 -1 48 -28 70 -61 49z"/>
<path d="M5227 3843 c-4 -3 -7 -19 -7 -35 l0 -28 110 0 110 0 0 -360 0 -360
40 0 40 0 0 360 0 360 110 0 110 0 0 35 0 35 -253 0 c-140 0 -257 -3 -260 -7z"/>
<path d="M5835 3819 c-4 -17 -4 -195 0 -395 l8 -364 33 0 34 0 2 183 3 182 67
3 c45 2 70 -1 78 -10 6 -7 65 -89 130 -182 65 -93 126 -174 136 -179 12 -7 22
-4 36 11 20 20 20 20 -86 175 -126 185 -127 187 -90 187 15 0 47 9 70 21 129
62 163 221 71 326 -57 65 -88 73 -299 73 l-186 0 -7 -31z m420 -72 c37 -37 51
-87 41 -141 -16 -87 -83 -116 -268 -116 l-118 0 0 145 0 145 156 0 156 0 33
-33z"/>
<path d="M7850 3805 c13 -14 26 -25 28 -25 3 0 -5 11 -18 25 -13 14 -26 25
-28 25 -3 0 5 -11 18 -25z"/>
<path d="M7825 3790 c-4 -7 -2 -17 4 -23 9 -9 11 -7 6 8 -7 20 -6 20 9 1 9
-11 18 -17 21 -14 3 2 -3 13 -14 22 -14 12 -21 14 -26 6z"/>
<path d="M7885 3760 c3 -5 8 -10 11 -10 2 0 4 5 4 10 0 6 -5 10 -11 10 -5 0
-7 -4 -4 -10z"/>
<path d="M7860 3739 c0 -5 5 -7 10 -4 6 3 10 8 10 11 0 2 -4 4 -10 4 -5 0 -10
-5 -10 -11z"/>
<path d="M7898 3732 c7 -5 10 -16 7 -24 -4 -9 -2 -19 4 -23 7 -4 8 0 4 12 -6
15 -2 14 21 -5 33 -26 43 -27 43 -8 0 8 -6 12 -15 8 -9 -3 -13 -1 -9 5 8 13
-18 36 -46 40 -15 2 -18 0 -9 -5z m42 -17 c7 -9 8 -15 2 -15 -5 0 -12 7 -16
15 -3 8 -4 15 -2 15 2 0 9 -7 16 -15z"/>
<path d="M4758 3607 c-15 -34 -74 -168 -133 -297 -98 -218 -104 -236 -88 -248
22 -16 162 -7 179 12 19 20 164 351 164 375 0 18 -82 221 -90 221 -3 0 -17
-28 -32 -63z"/>
<path d="M7940 3659 c0 -5 5 -7 10 -4 6 3 10 8 10 11 0 2 -4 4 -10 4 -5 0 -10
-5 -10 -11z"/>
<path d="M7967 3646 c-4 -11 -1 -13 10 -9 12 5 14 3 8 -7 -6 -9 -4 -11 5 -5
10 6 12 4 7 -8 -3 -9 -3 -16 1 -14 5 1 23 -15 41 -35 18 -21 38 -35 45 -31 6
3 8 2 3 -2 -4 -5 7 -23 24 -41 27 -28 30 -36 19 -49 -10 -12 -10 -15 1 -15 11
0 11 -3 -1 -11 -11 -8 -12 -12 -2 -16 6 -2 9 -9 6 -15 -4 -6 -10 -5 -15 3 -8
12 -11 11 -19 -1 -7 -11 -10 -11 -10 -2 0 7 -5 10 -11 7 -6 -4 -8 -14 -5 -22
3 -8 1 -11 -4 -8 -6 3 -15 3 -21 -1 -8 -4 -7 -9 2 -15 10 -6 11 -9 2 -9 -7 0
-13 -5 -13 -11 0 -6 9 -8 23 -4 22 7 22 7 2 -8 -15 -11 -22 -12 -27 -4 -6 9
-11 8 -18 -3 -8 -12 -10 -12 -10 -1 0 7 -47 -33 -104 -90 -58 -57 -102 -107
-100 -111 3 -5 0 -7 -8 -6 -7 2 -12 -3 -10 -11 2 -9 -3 -11 -13 -7 -10 3 -13
2 -10 -5 4 -5 16 -7 27 -3 15 4 18 3 13 -6 -5 -9 -4 -11 4 -6 6 4 9 12 6 17
-4 5 -1 9 5 9 7 0 9 7 6 16 -3 8 -2 13 3 9 5 -3 12 1 15 7 3 7 3 2 0 -12 -5
-19 20 1 95 76 56 55 101 99 101 97 0 -1 11 7 25 19 14 12 23 28 20 36 -2 7
-1 11 4 7 5 -3 28 11 50 32 34 30 41 43 41 72 0 44 -12 64 -41 68 -18 3 -20 1
-9 -12 7 -8 19 -15 26 -15 14 0 19 -12 8 -22 -10 -10 -45 32 -50 59 -5 24 -3
25 13 13 10 -8 5 0 -11 18 -16 17 -32 30 -34 27 -9 -8 -32 17 -26 27 4 6 -1 8
-14 4 -14 -5 -26 0 -40 19 -23 29 -28 30 -35 11z m115 -80 c3 3 9 1 13 -5 3
-6 0 -11 -7 -11 -16 1 -48 24 -48 35 0 5 8 1 18 -8 10 -10 21 -14 24 -11z m79
-159 c-10 -9 -11 -8 -5 6 3 10 9 15 12 12 3 -3 0 -11 -7 -18z m-173 -152 c-3
-3 -9 2 -12 12 -6 14 -5 15 5 6 7 -7 10 -15 7 -18z m-20 -30 c-3 -3 -9 2 -12
12 -6 14 -5 15 5 6 7 -7 10 -15 7 -18z m-34 -20 c-7 -16 -24 -21 -24 -6 0 8 7
13 27 20 1 1 0 -6 -3 -14z m-33 -35 c9 13 10 13 6 0 -2 -8 -14 -14 -26 -13
-11 2 -21 -2 -21 -9 0 -6 -3 -8 -6 -5 -4 4 -1 14 6 22 11 13 15 13 22 3 6 -10
10 -10 19 2z"/>
<path d="M8012 3644 c10 -10 20 -16 22 -13 3 3 -5 11 -17 18 -21 13 -21 12 -5
-5z"/>
</g>
</svg>
